<svg width="9" height="10" viewBox="0 0 9 10" fill="none" xmlns="http://www.w3.org/2000/svg">
<g clip-path="url(#clip0_57_2443)">
<path d="M4.5 0.0483398C2.01375 0.0483398 0 2.06209 0 4.54834C0 6.53959 1.28812 8.22147 3.07687 8.81771C3.30187 8.85709 3.38625 8.72209 3.38625 8.60396C3.38625 8.49709 3.38063 8.14272 3.38063 7.76584C2.25 7.97397 1.9575 7.49021 1.8675 7.23709C1.81687 7.10771 1.5975 6.70834 1.40625 6.60146C1.24875 6.51709 1.02375 6.30896 1.40062 6.30334C1.755 6.29771 2.00813 6.62959 2.0925 6.76459C2.4975 7.44521 3.14438 7.25396 3.40313 7.13584C3.4425 6.84334 3.56063 6.64646 3.69 6.53396C2.68875 6.42146 1.6425 6.03334 1.6425 4.31209C1.6425 3.82271 1.81687 3.41771 2.10375 3.10271C2.05875 2.99021 1.90125 2.52896 2.14875 1.91021C2.14875 1.91021 2.52562 1.79209 3.38625 2.37146C3.74625 2.27021 4.12875 2.21959 4.51125 2.21959C4.89375 2.21959 5.27625 2.27021 5.63625 2.37146C6.49688 1.78646 6.87375 1.91021 6.87375 1.91021C7.12125 2.52896 6.96375 2.99021 6.91875 3.10271C7.20563 3.41771 7.38 3.81709 7.38 4.31209C7.38 6.03896 6.32812 6.42146 5.32688 6.53396C5.49 6.67459 5.63063 6.94459 5.63063 7.36647C5.63063 7.96834 5.625 8.45209 5.625 8.60396C5.625 8.72209 5.70937 8.86271 5.93438 8.81771C6.82785 8.51636 7.60425 7.94228 8.15423 7.17635C8.7042 6.41043 9.00001 5.49126 9 4.54834C9 2.06209 6.98625 0.0483398 4.5 0.0483398Z" fill="black"/>
</g>
<defs>
<clipPath id="clip0_57_2443">
<rect width="9" height="9" fill="white" transform="translate(0 0.105469)"/>
</clipPath>
</defs>
</svg>
