<svg width="89" height="17" viewBox="0 0 89 17" fill="none" xmlns="http://www.w3.org/2000/svg">
<g filter="url(#filter0_d_125_1856)">
<path d="M19.3327 5.00023L22.0376 7.94943C22.0376 7.94943 19.3354 10.8848 19.3327 10.8848C19.3301 10.8848 18.7951 10.3499 19.286 9.76397L20.9457 7.95528L19.2998 6.18661C19.275 6.15996 19.2518 6.1316 19.2321 6.10034C19.0397 5.79592 18.9327 5.36354 19.3327 5.00023Z" fill="white"/>
<path d="M17.0595 4.99439L19.7644 7.94358L17.0595 10.879C17.0128 10.9299 16.5218 10.344 17.0128 9.75812L18.6725 7.94943L17.0266 6.18076C17.0018 6.15411 16.9786 6.12575 16.9589 6.09449C16.7665 5.79007 16.6595 5.35769 17.0595 4.99439Z" fill="white"/>
<path d="M13.8028 4.99438L11.0979 7.94358C11.0979 7.94358 13.8001 10.879 13.8028 10.879C13.8054 10.879 14.3404 10.344 13.8495 9.75812L12.1898 7.94943L13.8357 6.18076C13.8605 6.15411 13.8837 6.12575 13.9034 6.0945C14.0958 5.79007 14.2028 5.35769 13.8028 4.99438Z" fill="white"/>
<path d="M15.9976 4.99438L13.2927 7.94358L15.9976 10.879C16.0443 10.9299 16.5352 10.344 16.0443 9.75812L14.3846 7.94943L16.0304 6.18076C16.0552 6.15411 16.0785 6.12575 16.0982 6.09449C16.2905 5.79007 16.3976 5.35769 15.9976 4.99438Z" fill="white"/>
</g>
<g filter="url(#filter1_d_125_1856)">
<path d="M66.6802 6.71388V9.63284L70.1414 9.65924C70.1648 10.4482 69.51 10.6322 69.2762 10.6322C69.0423 10.6322 65.7449 10.6584 65.7449 10.6584C65.7449 10.6584 65.7685 8.10758 65.7685 6.71388C65.8854 5.68826 66.7271 5.7147 67.1716 5.7147C67.6161 5.7147 70.1411 5.7146 70.1411 5.7146V6.71388H66.6802Z" fill="white"/>
<path d="M49.9605 5.66211C49.9605 5.66211 46.6402 5.66214 46.383 5.66213C46.1258 5.66211 45.6113 5.81991 45.5646 6.58252C45.5645 7.26624 45.5643 10.6585 45.5643 10.6585C45.5643 10.6585 47.4021 10.6322 49.1189 10.6322C49.914 10.6322 49.9605 9.63295 49.9605 9.63295H46.4763V8.63366H49.1189C49.9605 8.63366 49.9605 7.66068 49.9605 7.66068H46.4763V6.66139H49.1189C49.9605 6.66139 49.9605 5.66211 49.9605 5.66211Z" fill="white"/>
<path d="M77.2034 5.66211C77.2034 5.66211 73.8831 5.66214 73.6259 5.66213C73.3687 5.66211 72.8542 5.81991 72.8075 6.58252C72.8075 7.26624 72.8072 10.6585 72.8072 10.6585C72.8072 10.6585 74.645 10.6322 76.3619 10.6322C77.1569 10.6322 77.2034 9.63295 77.2034 9.63295H73.7192V8.63366H76.3619C77.2034 8.63366 77.2034 7.66068 77.2034 7.66068H73.7192V6.66139H76.3619C77.2034 6.66139 77.2034 5.66211 77.2034 5.66211Z" fill="white"/>
<path d="M38.6194 5.68841H39.6717L40.6772 9.39627H40.9812L41.8698 5.68841H43.0157L41.7997 10.6322H39.7886L38.6194 5.68841Z" fill="white"/>
<path fill-rule="evenodd" clip-rule="evenodd" d="M31.6506 10.6584C31.6506 10.6584 34.8776 10.6847 35.1583 10.6584C35.4389 10.6321 35.9537 10.2331 36.0001 9.71173C36.0235 9.44876 36.0469 5.7146 36.0469 5.7146C36.0469 5.7146 33.3813 5.66224 32.5159 5.71471C32.2984 5.7279 31.9736 6.00901 31.908 6.08287C31.8423 6.15673 31.6879 6.36431 31.6743 6.6088C31.6043 7.87105 31.6506 10.6584 31.6506 10.6584ZM35.1583 9.63284H32.5626V6.66129H35.1583V9.63284Z" fill="white"/>
<path d="M25.4541 5.7147C25.4541 5.741 25.4541 10.6585 25.4541 10.6585C25.4541 10.6585 29.0814 10.6586 29.0787 10.6586C29.0761 10.6586 29.0787 9.65927 28.3071 9.65927C27.5354 9.65927 26.3194 9.65927 26.3194 9.65927V6.67584C26.3194 6.4647 26.2725 6.23739 26.1534 6.07415C26.1037 6.0061 26.0425 5.93484 25.9686 5.87248C25.7503 5.68841 25.4541 5.7147 25.4541 5.7147Z" fill="white"/>
<path d="M52.6265 5.71468C52.6265 5.74097 52.6265 10.6585 52.6265 10.6585C52.6265 10.6585 56.2538 10.6585 56.2511 10.6585C56.2485 10.6585 56.2511 9.65924 55.4795 9.65924C54.7078 9.65924 53.4918 9.65924 53.4918 9.65924V6.67582C53.4918 6.46467 53.4449 6.23736 53.3258 6.07413C53.2761 6.00607 53.2149 5.93481 53.1409 5.87246C52.9227 5.68838 52.6265 5.71468 52.6265 5.71468Z" fill="white"/>
<path fill-rule="evenodd" clip-rule="evenodd" d="M63.172 5.7147V10.6585H62.3301V8.71255H59.7111V10.6585H58.8234C58.8234 10.6585 58.8233 7.34511 58.8234 6.71399C58.8234 6.08286 59.1741 5.7147 59.7587 5.7147H63.172ZM59.7111 6.71399V7.68697H62.3301V6.71399H59.7111Z" fill="white"/>
</g>
<defs>
<filter id="filter0_d_125_1856" x="10.3979" y="4.69438" width="12.3397" height="7.29038" filterUnits="userSpaceOnUse" color-interpolation-filters="sRGB">
<feFlood flood-opacity="0" result="BackgroundImageFix"/>
<feColorMatrix in="SourceAlpha" type="matrix" values="0 0 0 0 0 0 0 0 0 0 0 0 0 0 0 0 0 0 127 0" result="hardAlpha"/>
<feOffset dy="0.4"/>
<feGaussianBlur stdDeviation="0.35"/>
<feComposite in2="hardAlpha" operator="out"/>
<feColorMatrix type="matrix" values="0 0 0 0 0 0 0 0 0 0 0 0 0 0 0 0 0 0 1 0"/>
<feBlend mode="normal" in2="BackgroundImageFix" result="effect1_dropShadow_125_1856"/>
<feBlend mode="normal" in="SourceGraphic" in2="effect1_dropShadow_125_1856" result="shape"/>
</filter>
<filter id="filter1_d_125_1856" x="24.7541" y="5.36211" width="53.1493" height="6.40806" filterUnits="userSpaceOnUse" color-interpolation-filters="sRGB">
<feFlood flood-opacity="0" result="BackgroundImageFix"/>
<feColorMatrix in="SourceAlpha" type="matrix" values="0 0 0 0 0 0 0 0 0 0 0 0 0 0 0 0 0 0 127 0" result="hardAlpha"/>
<feOffset dy="0.4"/>
<feGaussianBlur stdDeviation="0.35"/>
<feComposite in2="hardAlpha" operator="out"/>
<feColorMatrix type="matrix" values="0 0 0 0 0 0 0 0 0 0 0 0 0 0 0 0 0 0 1 0"/>
<feBlend mode="normal" in2="BackgroundImageFix" result="effect1_dropShadow_125_1856"/>
<feBlend mode="normal" in="SourceGraphic" in2="effect1_dropShadow_125_1856" result="shape"/>
</filter>
</defs>
</svg>
