<svg width="8" height="9" viewBox="0 0 8 9" fill="none" xmlns="http://www.w3.org/2000/svg">
<path d="M2.59984 1.21509H5.39984C6.4665 1.21509 7.33317 2.08175 7.33317 3.14842V5.94842C7.33317 6.46117 7.12948 6.95292 6.76691 7.31549C6.40434 7.67806 5.91259 7.88175 5.39984 7.88175H2.59984C1.53317 7.88175 0.666504 7.01509 0.666504 5.94842V3.14842C0.666504 2.63567 0.870194 2.14392 1.23276 1.78135C1.59533 1.41878 2.08709 1.21509 2.59984 1.21509ZM2.53317 1.88175C2.21491 1.88175 1.90969 2.00818 1.68464 2.23323C1.4596 2.45827 1.33317 2.76349 1.33317 3.08175V6.01509C1.33317 6.67842 1.86984 7.21509 2.53317 7.21509H5.4665C5.78476 7.21509 6.08999 7.08866 6.31503 6.86362C6.54008 6.63857 6.6665 6.33335 6.6665 6.01509V3.08175C6.6665 2.41842 6.12984 1.88175 5.4665 1.88175H2.53317ZM5.74984 2.38175C5.86034 2.38175 5.96632 2.42565 6.04447 2.50379C6.12261 2.58193 6.1665 2.68791 6.1665 2.79842C6.1665 2.90893 6.12261 3.01491 6.04447 3.09305C5.96632 3.17119 5.86034 3.21509 5.74984 3.21509C5.63933 3.21509 5.53335 3.17119 5.45521 3.09305C5.37707 3.01491 5.33317 2.90893 5.33317 2.79842C5.33317 2.68791 5.37707 2.58193 5.45521 2.50379C5.53335 2.42565 5.63933 2.38175 5.74984 2.38175ZM3.99984 2.88175C4.44186 2.88175 4.86579 3.05735 5.17835 3.36991C5.49091 3.68247 5.6665 4.10639 5.6665 4.54842C5.6665 4.99045 5.49091 5.41437 5.17835 5.72693C4.86579 6.03949 4.44186 6.21509 3.99984 6.21509C3.55781 6.21509 3.13389 6.03949 2.82133 5.72693C2.50877 5.41437 2.33317 4.99045 2.33317 4.54842C2.33317 4.10639 2.50877 3.68247 2.82133 3.36991C3.13389 3.05735 3.55781 2.88175 3.99984 2.88175ZM3.99984 3.54842C3.73462 3.54842 3.48027 3.65378 3.29273 3.84131C3.10519 4.02885 2.99984 4.2832 2.99984 4.54842C2.99984 4.81364 3.10519 5.06799 3.29273 5.25553C3.48027 5.44306 3.73462 5.54842 3.99984 5.54842C4.26505 5.54842 4.51941 5.44306 4.70694 5.25553C4.89448 5.06799 4.99984 4.81364 4.99984 4.54842C4.99984 4.2832 4.89448 4.02885 4.70694 3.84131C4.51941 3.65378 4.26505 3.54842 3.99984 3.54842Z" fill="black"/>
</svg>
