<svg width="8" height="9" viewBox="0 0 8 9" fill="none" xmlns="http://www.w3.org/2000/svg">
<path d="M6.91667 0.79834C7.13768 0.79834 7.34964 0.886137 7.50592 1.04242C7.6622 1.1987 7.75 1.41066 7.75 1.63167V7.46501C7.75 7.68602 7.6622 7.89798 7.50592 8.05426C7.34964 8.21054 7.13768 8.29834 6.91667 8.29834H1.08333C0.86232 8.29834 0.650358 8.21054 0.494078 8.05426C0.337797 7.89798 0.25 7.68602 0.25 7.46501V1.63167C0.25 1.41066 0.337797 1.1987 0.494078 1.04242C0.650358 0.886137 0.86232 0.79834 1.08333 0.79834H6.91667ZM6.70833 7.25667V5.04834C6.70833 4.68809 6.56522 4.34259 6.31049 4.08785C6.05575 3.83312 5.71025 3.69001 5.35 3.69001C4.99583 3.69001 4.58333 3.90667 4.38333 4.23167V3.76917H3.22083V7.25667H4.38333V5.20251C4.38333 4.88167 4.64167 4.61917 4.9625 4.61917C5.11721 4.61917 5.26558 4.68063 5.37498 4.79003C5.48438 4.89942 5.54583 5.0478 5.54583 5.20251V7.25667H6.70833ZM1.86667 3.11501C2.05232 3.11501 2.23037 3.04126 2.36164 2.90998C2.49292 2.77871 2.56667 2.60066 2.56667 2.41501C2.56667 2.02751 2.25417 1.71084 1.86667 1.71084C1.67991 1.71084 1.5008 1.78503 1.36875 1.91709C1.23669 2.04914 1.1625 2.22825 1.1625 2.41501C1.1625 2.80251 1.47917 3.11501 1.86667 3.11501ZM2.44583 7.25667V3.76917H1.29167V7.25667H2.44583Z" fill="black"/>
</svg>
